Coordinates
version=1
nRows=17
nColumns=36
inDegrees=yes

Units are S.I. units (second, meters, Newtons, ...)
If the header above contains a line with 'inDegrees', this indicates whether rotational values are in degrees (yes) or radians (no).

endheader
time	pelvis_tilt	pelvis_list	pelvis_rotation	pelvis_tx	pelvis_ty	pelvis_tz	hip_flexion_r	hip_adduction_r	hip_rotation_r	knee_angle_r	knee_angle_r_beta	ankle_angle_r	subtalar_angle_r	mtp_angle_r	hip_flexion_l	hip_adduction_l	hip_rotation_l	knee_angle_l	knee_angle_l_beta	ankle_angle_l	subtalar_angle_l	mtp_angle_l	lumbar_extension	lumbar_bending	lumbar_rotation	arm_flex_r	arm_add_r	arm_rot_r	elbow_flex_r	pro_sup_r	arm_flex_l	arm_add_l	arm_rot_l	elbow_flex_l	pro_sup_l
      4.93333330	    -16.81622661	     -3.06299747	     11.14449470	      0.66283220	      0.91874975	     -0.06427943	     18.84493984	     -7.33349136	    -14.46802422	      1.72573236	      0.03011971	     -3.22840977	     -8.86757205	     -7.49999987	     19.84920835	     -5.89604073	    -10.91075642	      2.51719488	      0.04393334	      1.52380933	     -3.29565242	     -7.49999987	      1.86753144	     -0.04604368	      1.30066681	     55.05516909	     -1.65348731	     58.93699290	    133.58019682	     99.56924495	     51.85516103	      5.58409153	     69.79808539	    120.74457981	    105.57910325
      4.95000000	    -17.00586885	     -3.19477883	     11.31168258	      0.65883703	      0.91632915	     -0.06186274	     19.40768179	     -7.33293195	    -14.76887323	      2.23383382	      0.03898776	     -2.91347200	     -8.80615782	     -7.49999987	     20.68845507	     -6.04354096	    -10.73938813	      3.27836714	      0.05721830	      1.70983738	     -3.84061902	     -7.49999987	      1.64197733	      0.01676186	      1.49425140	     56.42057667	     -1.83962074	     58.79323177	    133.35232671	     99.02594601	     52.75656802	      5.82568934	     70.07098462	    121.04526252	    105.61087319
      4.96666670	    -17.00041667	     -3.22515506	     11.32612982	      0.65917958	      0.91893014	     -0.06087036	     19.85926746	     -7.37790818	    -14.85228023	      2.91142288	      0.05081392	     -2.66860599	     -8.91041951	     -7.49999987	     21.30336795	     -6.20211228	    -10.84198105	      4.08919238	      0.07136987	      1.98332066	     -4.12180301	     -7.49999987	      1.09305472	     -0.01699662	      1.83659207	     57.14145146	     -2.08941107	     58.66069705	    133.00315272	     99.01987409	     53.20521958	      5.79890729	     70.27625259	    121.23983396	    105.62413305
      4.98333330	    -17.02651509	     -3.25719446	     11.32347897	      0.65484398	      0.92128291	     -0.06352046	     20.48127069	     -7.47613448	    -14.85379679	      3.84067917	      0.06703250	     -2.43126827	     -8.95404150	     -7.49999987	     22.02178677	     -6.35035189	    -10.91169688	      5.00728213	      0.08739356	      2.19791225	     -4.38951878	     -7.49999987	      0.39113517	      0.03467372	      1.84036484	     57.67361985	     -2.50964866	     58.76340494	    132.82609864	     99.03469419	     53.64885537	      5.68426104	     70.41813215	    121.25056993	    105.63096039
      5.00000000	    -17.79481112	     -3.41939543	     11.33831077	      0.65144903	      0.91973439	     -0.06022308	     22.16737412	     -7.67407634	    -14.93696269	      5.22125981	      0.09112817	     -1.56506468	     -8.94476922	     -7.49999987	     23.89479028	     -6.50384399	    -10.75765609	      6.44167193	      0.11242838	      2.89071462	     -5.08356783	     -7.49999987	      0.35441402	      0.11114273	      2.08044093	     58.98550447	     -2.86580628	     59.90681084	    132.93761782	     96.57872178	     54.96128594	      5.44076506	     71.36649574	    121.34347839	    102.92012711
      5.01666670	    -17.99190897	     -3.41184178	     11.38436420	      0.65222114	      0.90945966	     -0.06100586	     23.27210523	     -7.97007071	    -15.12618504	      6.71439681	      0.11718833	     -1.01571522	     -9.08792366	     -7.49999987	     25.08529446	     -6.62665471	    -11.01561343	      7.92167370	      0.13825929	      3.44683090	     -5.47407247	     -7.49999987	      0.03274834	      0.05982770	      2.02828850	     60.11920811	     -2.44097019	     59.51178440	    132.31005183	     95.85187633	     56.32609516	      5.77021287	     70.84915120	    121.01508505	    101.98884456
      5.03333330	    -18.70809802	     -3.47738420	     11.34748695	      0.65244450	      0.90674647	     -0.06032317	     25.18987697	     -8.35936521	    -14.85246196	      8.69062360	      0.15168000	     -0.14382632	     -9.36952828	     -7.49999987	     27.02383520	     -6.72045546	    -10.66085469	      9.76179178	      0.17037541	      4.25725110	     -6.26485607	     -7.49999987	     -0.00859950	      0.10439565	      1.87915230	     61.26514096	     -2.19703674	     59.58820194	    132.22163586	     96.28149564	     57.97503175	      5.35905635	     70.97577476	    121.85346558	    102.43883582
      5.05000000	    -19.08685861	     -3.47011088	     11.34779337	      0.65241835	      0.90269587	     -0.06088592	     26.67842729	     -8.77254149	    -14.66097776	     10.69508300	      0.18666441	      0.78990937	     -9.61032747	     -7.49999987	     28.44891538	     -6.79687811	    -10.60230236	     11.46631260	      0.20012491	      5.07335151	     -6.89645438	     -7.49999987	     -0.22170263	      0.15184255	      1.72073104	     61.61037522	     -2.02046802	     60.01503522	    131.68115455	     96.73834739	     58.81172941	      4.85657078	     70.89972541	    121.55452178	    102.84916815
      5.06666670	    -19.79907602	     -3.42852998	     11.29832298	      0.64469600	      0.89919425	     -0.05966626	     29.07027779	     -9.41315398	    -14.31843022	     13.62798875	      0.23785327	      1.89451745	     -9.96092019	     -7.49999987	     30.69548983	     -6.88382675	    -10.52257772	     13.85354652	      0.24179000	      6.11015060	     -7.54951296	     -7.49999987	     -0.64423921	      0.14138491	      1.40445163	     62.27723678	     -1.76707779	     60.36760270	    131.34533897	     98.39014839	     59.72600235	      3.69098202	     70.33081888	    120.77740395	    104.38741794
      5.08333330	    -19.93401858	     -3.30881814	     11.29610210	      0.64469919	      0.89723625	     -0.06007149	     30.86899868	    -10.02798391	    -13.93197113	     16.64048360	      0.29043123	      3.13584708	    -10.42604305	     -7.49999987	     32.39146943	     -7.03274086	    -10.45842118	     16.46679994	      0.28739988	      7.24866985	     -8.26626742	     -7.49999987	     -1.73729407	      0.15889615	      1.42143437	     62.86378905	     -1.90751336	     60.58185188	    131.18708566	     98.45495213	     60.75568802	      3.28763958	     70.02799880	    120.19318249	    104.38544020
      5.10000000	    -20.78290083	     -3.25648902	     11.16425356	      0.64552459	      0.88933163	     -0.05963182	     33.49688229	    -10.69554642	    -13.43254568	     19.83323475	      0.34615525	      4.60870642	    -10.43513600	     -7.49999987	     34.74808946	     -7.17361834	    -10.52986645	     19.09496756	      0.33327005	      8.10235158	     -9.06271724	     -7.49999987	     -1.52432296	      0.04763603	      1.70195202	     63.02229949	     -2.43088563	     60.39581236	    130.94215793	     99.09665689	     61.39399996	      2.96778451	     70.11687791	    119.84256778	    104.24484585
      5.11666670	    -21.21663410	     -3.12578693	     11.02757082	      0.64559481	      0.87945204	     -0.05953999	     35.79680333	    -11.38754964	    -12.89382460	     23.26656593	      0.40607818	      6.39594694	    -10.39579678	     -7.49999987	     36.65114059	     -7.33742972	    -10.53086076	     21.85164638	      0.38138318	      9.27321502	     -9.53505460	     -7.49999987	     -1.92138486	     -0.01642315	      1.72627081	     63.51752166	     -2.39504273	     60.71854989	    130.97689491	     97.73286869	     61.85833610	      2.67245756	     70.49459351	    119.55845234	    102.53954388
      5.13333330	    -22.32276395	     -3.02030795	     11.00188680	      0.63339350	      0.86284515	     -0.06044685	     39.49610493	    -12.39064259	    -12.14338328	     27.76691414	      0.48462407	      8.47457850	    -10.28857492	     -7.49999987	     39.98778614	     -7.39802296	    -10.28813725	     25.63052983	      0.44733713	     10.85221281	    -10.18877133	     -7.49999987	     -1.80903874	     -0.28421649	      1.26301961	     64.96225894	     -2.43985933	     59.95153474	    131.33511735	     96.53033172	     64.47946206	      3.08510549	     70.15766822	    119.53145644	    100.73427320
      5.15000000	    -22.81381051	     -2.96136154	     10.89732720	      0.63782792	      0.85833132	     -0.05869055	     42.14627989	    -13.05576898	    -11.53376559	     31.58313725	      0.55122973	     10.73860146	     -9.91693436	     -7.49999987	     42.32835983	     -7.63727445	    -10.08883871	     28.97775587	      0.50575725	     12.42332370	    -10.73472838	     -7.49999987	     -2.20990164	     -0.31480066	      1.31265671	     65.44839379	     -2.32319526	     60.53705152	    130.98177954	     97.10415881	     65.43309486	      2.56001758	     70.93245543	    119.35162906	    101.39097529
      5.16666670	    -23.55742273	     -2.88460465	     10.92686028	      0.62966496	      0.85056940	     -0.06220145	     45.43210197	    -13.98833304	    -10.88182755	     36.05341339	      0.62925077	     13.12682013	     -9.24574643	     -7.49999987	     45.40245364	     -7.80735682	     -9.82319041	     32.96332057	      0.57531848	     14.05205430	    -11.15645591	     -7.49999987	     -2.84106978	     -0.33765543	      1.17296096	     66.24919314	     -2.76229054	     61.44397071	    131.21843286	     97.62574203	     66.40119606	      2.93532939	     71.78769070	    119.04838864	    101.82156707
      5.18333330	    -24.37139097	     -2.92167581	     10.98562911	      0.62599907	      0.83688233	     -0.05981594	     48.83556408	    -14.78298850	    -10.22060097	     40.47616173	      0.70644229	     15.51517302	     -8.51745147	     -7.49999987	     48.67577820	     -8.08874415	     -9.57842008	     37.02033032	      0.64612665	     15.59875503	    -11.50274743	     -7.49999987	     -3.26418198	     -0.50181503	      1.36147601	     67.22884637	     -3.29198836	     61.66500728	    131.72100513	     99.62304462	     68.18434265	      3.37194907	     73.06208571	    118.59168091	    103.21444373
      5.20000000	    -24.91554275	     -3.01531568	     10.97991926	      0.62676874	      0.82149820	     -0.05866557	     51.86275818	    -15.43014314	     -9.73377317	     44.61748235	      0.77872197	     17.71770764	     -8.01777738	     -7.49999987	     51.53774391	     -8.47926312	     -9.23248263	     40.91963821	      0.71418242	     17.07236807	    -11.85344588	     -7.49999987	     -3.90229710	     -0.49187438	      1.40571187	     68.21045649	     -3.15270820	     62.32963782	    132.33849363	     96.97426929	     68.93611991	      3.49314111	     73.68755070	    119.11837570	    100.37597858
